HIERARCHY
ROOT Hips
{
	OFFSET 0.000000 0.000000 0.000000
	CHANNELS 6 Xposition Yposition Zposition Xrotation Yrotation Zrotation
	JOINT LeftUpLeg_virtual
	{
		OFFSET 0.000000 0.000000 0.000000
		CHANNELS 3 Xrotation Yrotation Zrotation
		JOINT LeftUpLeg
		{
			OFFSET 15.427100 -6.655098 0.678600
			CHANNELS 3 Xrotation Yrotation Zrotation
			JOINT LeftLeg
			{
				OFFSET 4.081073 -39.591068 13.024000
				CHANNELS 3 Xrotation Yrotation Zrotation
				JOINT LeftFoot
				{
					OFFSET -4.081074 -37.707932 -15.979700
					CHANNELS 3 Xrotation Yrotation Zrotation
					JOINT LeftToeBase
					{
						OFFSET 5.346399 -15.068900 20.645000
						CHANNELS 3 Xrotation Yrotation Zrotation
						JOINT LeftToe_End
						{
							OFFSET 2.754700 0.931300 11.300900
							CHANNELS 3 Xrotation Yrotation Zrotation
							End Site
							{
								OFFSET 0 0 0
							}
						}
					}
				}
			}
		}
	}
	JOINT RightUpLeg_virtual
	{
		OFFSET 0.000000 0.000000 0.000000
		CHANNELS 3 Xrotation Yrotation Zrotation
		JOINT RightUpLeg
		{
			OFFSET -15.569500 -6.655098 0.678600
			CHANNELS 3 Xrotation Yrotation Zrotation
			JOINT RightLeg
			{
				OFFSET -4.081825 -39.591045 13.023800
				CHANNELS 3 Xrotation Yrotation Zrotation
				JOINT RightFoot
				{
					OFFSET 4.081824 -37.707954 -15.979600
					CHANNELS 3 Xrotation Yrotation Zrotation
					JOINT RightToeBase
					{
						OFFSET -5.346400 -15.068900 20.645000
						CHANNELS 3 Xrotation Yrotation Zrotation
						JOINT RightToe_End
						{
							OFFSET -2.754700 0.931300 11.300900
							CHANNELS 3 Xrotation Yrotation Zrotation
							End Site
							{
								OFFSET 0 0 0
							}
						}
					}
				}
			}
		}
	}
	JOINT Spine_virtual
	{
		OFFSET 0.000000 0.000000 0.000000
		CHANNELS 3 Xrotation Yrotation Zrotation
		JOINT Spine
		{
			OFFSET -0.279200 12.230698 -2.892100
			CHANNELS 3 Xrotation Yrotation Zrotation
			JOINT Spine1
			{
				OFFSET -0.232667 10.192268 -1.242267
				CHANNELS 3 Xrotation Yrotation Zrotation
				JOINT Spine1_split
				{
					OFFSET -0.232667 10.192268 -1.242267
					CHANNELS 3 Xrotation Yrotation Zrotation
					JOINT Spine2
					{
						OFFSET -0.232667 10.192268 -1.242267
						CHANNELS 3 Xrotation Yrotation Zrotation
						JOINT Neck_virtual
						{
							OFFSET 0.000000 0.000000 0.000000
							CHANNELS 3 Xrotation Yrotation Zrotation
							JOINT Neck
							{
								OFFSET -0.418800 17.814194 8.416900
								CHANNELS 3 Xrotation Yrotation Zrotation
								JOINT Head
								{
									OFFSET 0.000000 7.031097 3.806800
									CHANNELS 3 Xrotation Yrotation Zrotation
									JOINT HeadTop_End
									{
										OFFSET 0.000000 24.646606 12.978600
										CHANNELS 3 Xrotation Yrotation Zrotation
										End Site
										{
											OFFSET 0 0 0
										}
									}
								}
							}
						}
						JOINT LeftShoulder_virtual
						{
							OFFSET 0.000000 0.000000 0.000000
							CHANNELS 3 Xrotation Yrotation Zrotation
							JOINT LeftShoulder
							{
								OFFSET 8.476499 7.247704 -3.868750
								CHANNELS 3 Xrotation Yrotation Zrotation
								JOINT LeftShoulder_split
								{
									OFFSET 8.476499 7.247704 -3.868750
									CHANNELS 3 Xrotation Yrotation Zrotation
									JOINT LeftArm
									{
										OFFSET 9.308998 -2.777710 0.208600
										CHANNELS 3 Xrotation Yrotation Zrotation
										JOINT LeftForeArm
										{
											OFFSET 29.972298 0.000000 0.000000
											CHANNELS 3 Xrotation Yrotation Zrotation
											JOINT LeftHand
											{
												OFFSET 26.026505 0.000000 0.000000
												CHANNELS 3 Xrotation Yrotation Zrotation
												End Site
												{
													OFFSET 0 0 0
												}
											}
										}
									}
								}
							}
						}
						JOINT RightShoulder_virtual
						{
							OFFSET 0.000000 0.000000 0.000000
							CHANNELS 3 Xrotation Yrotation Zrotation
							JOINT RightShoulder
							{
								OFFSET -7.570500 7.247704 -3.868750
								CHANNELS 3 Xrotation Yrotation Zrotation
								JOINT RightShoulder_split
								{
									OFFSET -7.570500 7.247704 -3.868750
									CHANNELS 3 Xrotation Yrotation Zrotation
									JOINT RightArm
									{
										OFFSET -9.308998 -2.777710 0.208500
										CHANNELS 3 Xrotation Yrotation Zrotation
										JOINT RightForeArm
										{
											OFFSET -29.972300 0.000000 0.000000
											CHANNELS 3 Xrotation Yrotation Zrotation
											JOINT RightHand
											{
												OFFSET -26.026505 0.000000 0.000000
												CHANNELS 3 Xrotation Yrotation Zrotation
												End Site
												{
													OFFSET 0 0 0
												}
											}
										}
									}
								}
							}
						}
					}
				}
			}
		}
	}
}
MOTION
Frames: 10
Frame Time: 0.03333333
0.627047 86.991974 4.135612 0.000000 0.000000 0.000000 23.966821 12.167119 2.071130 -40.182747 11.624833 18.609634 31.514800 5.785584 -6.673946 1.666370 26.628078 -17.453691 -6.329661 -0.485667 -0.240299 0.000000 0.000000 0.000000 25.664093 10.918216 2.117375 -49.338893 -9.906632 -11.903385 31.469772 7.603866 -0.571924 -5.054608 -9.644150 1.925800 2.724719 0.846058 0.673762 0.000000 0.000000 0.000000 22.810568 10.710405 3.425678 12.248549 -0.813976 1.666990 8.728770 2.179465 -2.931167 0.497082 -0.414087 0.572227 0.000000 0.000000 0.000000 9.605176 2.158757 -3.354093 -7.695565 5.538791 0.032082 -23.420022 -2.384527 -9.445535 0.000000 0.000000 0.000000 10.697108 1.973889 -2.780017 1.537967 4.321412 -8.769515 -0.239072 -2.669046 -1.389074 -28.801436 -1.220515 -58.230955 2.066398 -41.737275 -0.117516 0.000000 0.000000 0.000000 9.308789 1.606408 -3.045739 4.263764 23.134336 3.577524 -0.225818 4.833175 -0.473270 -20.734334 -14.339622 62.832249 -0.220455 36.375436 0.997457 0.000000 0.000000 0.000000 
0.994327 87.966751 6.239403 0.000000 0.000000 0.000000 23.408385 11.892082 2.281659 -40.454531 10.753837 17.297712 29.159454 6.890326 -6.471103 2.059959 26.971758 -16.434897 -5.371350 -0.467752 -0.397241 0.000000 0.000000 0.000000 25.785185 10.326083 2.293122 -47.467544 -10.129405 -12.510572 30.099517 7.316810 -0.738804 -4.686271 -10.013206 1.341850 1.695734 0.795089 0.936092 0.000000 0.000000 0.000000 23.290820 10.672430 3.251196 11.744129 -0.173534 2.058541 8.695143 2.420956 -2.804490 0.331890 0.800893 1.097849 0.000000 0.000000 0.000000 9.534252 2.325287 -3.278082 -7.385180 4.965512 -0.114915 -23.622348 -2.482416 -9.645048 0.000000 0.000000 0.000000 10.603250 2.144014 -2.710688 1.572404 4.931925 -8.299858 -1.210156 -0.876310 -1.455263 -27.212558 1.114100 -57.002450 1.403912 -40.242006 -0.444900 0.000000 0.000000 0.000000 9.400159 1.836469 -2.993547 4.488785 22.917964 3.535043 -1.093237 4.611736 -1.586025 -21.710523 -16.531614 61.991207 -0.271548 36.204801 1.086478 0.000000 0.000000 0.000000 
1.497705 89.042145 9.024391 0.000000 0.000000 0.000000 22.470002 13.200532 2.542407 -41.070095 9.853846 14.845952 26.269556 7.577232 -6.226032 3.957124 26.703355 -16.945339 -3.226224 -0.547923 -0.346866 0.000000 0.000000 0.000000 25.099301 10.899239 2.564910 -44.515082 -11.200193 -14.232155 29.005792 6.981481 -0.719513 -5.370280 -10.728429 0.753308 -0.341158 0.770179 1.178973 0.000000 0.000000 0.000000 23.525431 11.168315 3.265561 11.392697 1.022162 2.629222 8.690876 2.965159 -2.350566 0.386274 1.077737 0.987451 0.000000 0.000000 0.000000 9.535936 2.802653 -2.798408 -7.205456 4.173824 -0.737224 -24.550726 -2.592873 -10.447322 0.000000 0.000000 0.000000 10.391323 2.634954 -2.321719 1.537753 4.884822 -8.122088 -1.568799 0.425514 -1.250092 -23.723801 4.074358 -54.905428 0.764429 -39.708319 -0.723557 0.000000 0.000000 0.000000 9.481219 2.382474 -2.570249 4.782848 22.465566 2.962835 -1.807840 4.373744 -2.321478 -24.253655 -18.747513 59.754689 -0.545636 37.025117 1.309476 0.000000 0.000000 0.000000 
2.047111 89.563324 12.236275 0.000000 0.000000 0.000000 21.241163 15.167195 2.866096 -41.938646 9.223410 11.897157 24.021261 7.692206 -6.027987 6.479876 25.780406 -18.444069 -1.824982 -0.758428 0.326834 0.000000 0.000000 0.000000 23.769347 12.323279 2.912151 -41.424742 -13.039018 -16.533958 28.815984 6.812947 -0.373402 -6.949382 -11.601762 0.636447 -2.465156 0.795350 1.290114 0.000000 0.000000 0.000000 23.125865 12.456710 3.339783 11.279315 2.584390 3.247334 8.676275 3.698632 -1.683763 0.548374 0.596512 0.682976 0.000000 0.000000 0.000000 9.615796 3.498790 -2.010215 -7.283803 3.233714 -1.627956 -25.969798 -2.887643 -11.628657 0.000000 0.000000 0.000000 10.071725 3.379634 -1.673689 1.500547 4.137736 -8.072485 -1.227262 0.764197 -0.899505 -19.395693 6.623216 -52.976877 0.375666 -40.276861 -0.866408 0.000000 0.000000 0.000000 9.541542 3.160421 -1.870651 5.030742 22.021102 2.004981 -2.551063 4.182167 -2.612022 -27.980806 -19.800297 56.432464 -0.873609 38.387255 1.512843 0.000000 0.000000 0.000000 
2.484679 89.168434 15.765591 0.000000 0.000000 0.000000 19.837554 17.122541 3.205568 -42.859324 9.129852 9.119579 23.066427 7.564553 -5.961591 7.578258 24.635246 -19.033787 -2.262783 -1.025802 1.490465 0.000000 0.000000 0.000000 22.349055 14.046505 3.191227 -38.716384 -15.532675 -18.530815 29.602528 6.859515 0.152759 -9.815826 -12.645724 1.061999 -3.917306 0.872738 1.140781 0.000000 0.000000 0.000000 22.098223 14.326445 3.300372 11.347612 4.360939 3.887604 8.620687 4.508412 -0.894732 0.337608 0.547586 0.281483 0.000000 0.000000 0.000000 9.703935 4.285384 -1.075638 -7.649111 2.160354 -2.540786 -27.494805 -3.547875 -12.819798 0.000000 0.000000 0.000000 9.688343 4.252316 -0.863391 1.503182 2.972487 -8.030223 -0.823306 0.523750 -0.466446 -14.959590 8.211481 -51.842703 0.373057 -41.588209 -0.781178 0.000000 0.000000 0.000000 9.534365 4.050682 -1.024796 5.125523 21.770321 0.997966 -2.976427 3.989703 -2.786665 -32.333299 -18.771612 52.571809 -1.069257 39.897915 1.535325 0.000000 0.000000 0.000000 
2.860801 87.858063 19.585514 0.000000 0.000000 0.000000 18.392084 18.738315 3.366487 -43.554655 9.639446 7.256466 23.676919 7.362543 -6.101507 6.320075 23.698663 -17.756257 -3.520739 -1.256590 2.249296 0.000000 0.000000 0.000000 20.961605 15.993801 3.119180 -36.091078 -18.350145 -19.497323 31.165139 7.054640 0.529977 -14.350866 -13.923539 1.633763 -4.060149 0.993584 0.753381 0.000000 0.000000 0.000000 20.542885 16.057712 3.039477 11.450488 6.174462 4.496077 8.451063 5.274555 -0.109215 0.758233 0.811392 -0.076119 0.000000 0.000000 0.000000 9.674860 5.021514 -0.196901 -8.240447 1.062314 -3.259493 -28.805599 -4.730437 -13.589564 0.000000 0.000000 0.000000 9.235285 5.105724 -0.014616 1.547798 1.615253 -7.722687 -0.557357 -0.127116 -0.071068 -10.650566 8.494413 -51.420301 0.643678 -43.426852 -0.485319 0.000000 0.000000 0.000000 9.433730 4.907293 -0.215852 5.020975 21.755922 0.151595 -3.005273 4.064416 -2.939099 -36.205771 -15.158811 49.181901 -0.944766 41.367785 1.242138 0.000000 0.000000 0.000000 
3.100539 86.203514 23.499178 0.000000 0.000000 0.000000 16.991781 20.007035 3.144473 -43.889105 10.082979 6.450225 25.500160 7.241566 -6.402547 3.453734 23.067314 -14.954865 -4.190997 -1.276612 2.066778 0.000000 0.000000 0.000000 19.734418 18.012406 2.534994 -32.823902 -21.028300 -19.055456 33.301690 7.201664 0.650752 -19.921903 -15.431286 1.792698 -2.629754 1.137190 0.278388 0.000000 0.000000 0.000000 18.752513 17.497843 2.416529 11.349326 7.828845 5.014387 8.133745 5.898261 0.517606 1.403521 1.752072 -0.378097 0.000000 0.000000 0.000000 9.428547 5.602099 0.474483 -8.760607 -0.005424 -3.631373 -29.561537 -6.468666 -13.581027 0.000000 0.000000 0.000000 8.676863 5.804999 0.661124 1.634787 0.409109 -7.079811 -0.276908 -1.198415 0.265201 -6.252384 7.928453 -51.122590 1.035731 -45.454837 -0.083842 0.000000 0.000000 0.000000 9.162482 5.571782 0.384519 4.739685 21.651298 -0.500260 -2.957691 4.239527 -2.947220 -38.710118 -9.313787 46.695975 -0.493967 43.221229 0.640450 0.000000 0.000000 0.000000 
3.202348 84.883537 26.877333 0.000000 0.000000 0.000000 15.721036 21.052801 2.479145 -43.443889 9.964532 6.769676 27.632799 7.048353 -6.829484 0.756167 22.387605 -11.610870 -4.451159 -1.041235 1.309101 0.000000 0.000000 0.000000 18.499398 19.850476 1.661293 -28.879949 -22.991305 -17.242992 35.486555 7.231175 0.535964 -24.881718 -16.960367 1.815375 -0.639702 1.219477 -0.074192 0.000000 0.000000 0.000000 16.987333 18.769561 1.564608 10.856986 9.091019 5.347791 7.653456 6.259029 0.844178 1.452492 2.988617 -0.242138 0.000000 0.000000 0.000000 8.890990 5.931504 0.819523 -8.925915 -0.945173 -3.716371 -29.573964 -8.612716 -12.540586 0.000000 0.000000 0.000000 7.967679 6.236074 1.002264 1.722981 -0.451089 -6.159203 -0.301396 -2.434446 0.322737 -1.552706 7.546122 -50.164898 1.217374 -47.822362 0.292757 0.000000 0.000000 0.000000 8.597073 5.937646 0.692177 4.335572 21.152911 -1.002732 -2.606101 4.401712 -2.783764 -39.424528 -2.453553 45.133921 0.166561 45.997888 -0.168168 0.000000 0.000000 0.000000 
3.392929 84.354584 30.008154 0.000000 0.000000 0.000000 14.552755 21.822946 1.612994 -41.750361 9.264834 7.993153 29.085227 6.704422 -7.377987 -0.344695 21.421828 -8.834370 -4.926047 -0.691399 0.620814 0.000000 0.000000 0.000000 17.050309 21.191150 0.823796 -24.856407 -23.947193 -14.828011 37.184281 7.363722 0.329858 -27.053012 -18.199077 2.666866 0.014690 1.215970 -0.137221 0.000000 0.000000 0.000000 15.223704 20.033114 0.805204 9.978375 9.749541 5.359991 7.023923 6.277221 0.819185 1.704630 3.540965 0.128355 0.000000 0.000000 0.000000 8.059845 5.975680 0.799057 -8.626520 -1.692234 -3.679103 -28.753064 -10.884373 -10.430989 0.000000 0.000000 0.000000 7.147369 6.325464 0.956411 1.761143 -1.000716 -5.031030 -0.858036 -3.583706 -0.255946 2.975811 8.198332 -47.841568 0.907514 -50.696666 0.451100 0.000000 0.000000 0.000000 7.737047 5.984233 0.671069 3.899477 20.205492 -1.456134 -2.187420 4.443569 -2.511303 -38.204950 4.007098 44.148113 0.892537 49.935083 -1.009698 0.000000 0.000000 0.000000 
3.723101 84.804703 32.978840 0.000000 0.000000 0.000000 13.486228 22.467861 0.872445 -38.683746 8.292790 9.551923 29.203813 6.498986 -7.993738 0.173511 20.314972 -6.858728 -5.514070 -0.337030 0.241132 0.000000 0.000000 0.000000 15.581997 22.225760 0.190059 -21.156998 -24.056210 -12.597025 37.936366 7.676524 0.096423 -25.708304 -19.025191 4.697954 -2.037759 1.119271 0.119203 0.000000 0.000000 0.000000 13.605777 21.233617 0.272706 8.924738 9.775929 5.001474 6.303170 5.976311 0.483073 1.467580 3.344787 0.249320 0.000000 0.000000 0.000000 7.069643 5.735947 0.484846 -7.877871 -2.236567 -3.681768 -27.031858 -12.906944 -7.467907 0.000000 0.000000 0.000000 6.236130 6.109278 0.558825 1.695898 -1.229469 -3.996696 -1.565935 -4.114552 -0.939731 6.284754 10.166471 -44.022495 0.299561 -54.163212 0.379839 0.000000 0.000000 0.000000 6.684053 5.732441 0.366789 3.479977 18.931842 -1.914876 -1.781262 3.931919 -1.981925 -35.221370 8.962059 43.149826 1.458287 54.938411 -1.679107 0.000000 0.000000 0.000000 
